<svg width="16" height="17" viewBox="0 0 16 17" fill="none" xmlns="http://www.w3.org/2000/svg">
<g clip-path="url(#clip0_199_409)">
<path d="M16 8.57056C16 4.36912 12.4183 0.963196 8 0.963196C3.58172 0.963196 0 4.36912 0 8.57056C0 12.3676 2.92547 15.5148 6.75 16.0855V10.7696H4.71875V8.57056H6.75V6.89456C6.75 4.98797 7.94438 3.93482 9.77172 3.93482C10.6467 3.93482 11.5625 4.0834 11.5625 4.0834V5.95553H10.5538C9.56 5.95553 9.25 6.54198 9.25 7.14418V8.57056H11.4688L11.1141 10.7696H9.25V16.0855C13.0745 15.5148 16 12.3676 16 8.57056Z" fill="white"/>
</g>
<defs>
<clipPath id="clip0_199_409">
<rect width="16" height="15.2147" fill="white" transform="translate(0 0.963196)"/>
</clipPath>
</defs>
</svg>
