<svg width="34" height="28" viewBox="0 0 34 28" fill="none" xmlns="http://www.w3.org/2000/svg">
<path d="M25.866 4.73121C25.866 4.08113 25.5547 3.46915 24.9905 3.00935L22.1734 0.713507C21.6171 0.260043 20.8273 0 20.0413 0H19.8701V4.87073H25.8661L25.866 4.73121Z" fill="#2405F2"/>
<path d="M18.1911 16.7519C18.3818 16.2802 18.7145 15.841 19.1483 15.4851L25.8927 10.0107V6.4943H18.8934C18.3429 6.4943 17.9297 6.13122 17.9297 5.68251V0H2.98828C1.34048 0 0 1.09245 0 2.43536V25.2737C0 26.6166 1.34048 27.709 2.98828 27.709H22.8778C24.5256 27.709 25.8927 26.6166 25.8927 25.2737V19.215L24.798 20.0854C24.3545 20.4437 23.8351 20.7045 23.2494 20.8639L20.0822 21.7257L19.5997 21.7471C18.802 21.7471 18.0472 21.4308 17.5783 20.9012C17.1134 20.374 16.9869 19.6907 17.2398 19.0731L18.1911 16.7519ZM4.98047 14.6122H14.9091C15.4596 14.6122 15.9052 14.9753 15.9052 15.424C15.9052 15.8727 15.4596 16.2358 14.9091 16.2358H4.98047C4.42989 16.2358 3.98438 15.8727 3.98438 15.424C3.98438 14.9753 4.42989 14.6122 4.98047 14.6122ZM3.98438 12.1768C3.98438 11.7281 4.42989 11.365 4.98047 11.365H14.9091C15.4596 11.365 15.9052 11.7281 15.9052 12.1768C15.9052 12.6255 15.4596 12.9886 14.9091 12.9886H4.98047C4.42989 12.9886 3.98438 12.6255 3.98438 12.1768ZM3.98438 18.6711C3.98438 18.2224 4.42989 17.8593 4.98047 17.8593H14.9091C15.4596 17.8593 15.9052 18.2224 15.9052 18.6711C15.9052 19.1198 15.4596 19.4829 14.9091 19.4829H4.98047C4.42989 19.4829 3.98438 19.1198 3.98438 18.6711ZM18.8934 22.7301C19.444 22.7301 19.8895 23.0931 19.8895 23.5418C19.8895 23.9905 19.4441 24.3536 18.8934 24.3536H12.9169C12.3663 24.3536 11.9208 23.9905 11.9208 23.5418C11.9208 23.0931 12.3663 22.7301 12.9169 22.7301H18.8934ZM4.98047 9.74145C4.42989 9.74145 3.98438 9.37837 3.98438 8.92966C3.98438 8.48096 4.42989 8.11788 4.98047 8.11788H18.8934C19.444 8.11788 19.8895 8.48096 19.8895 8.92966C19.8895 9.37837 19.444 9.74145 18.8934 9.74145H4.98047Z" fill="#2405F2"/>
<path d="M19.9956 17.4702L19.129 19.589C18.9991 19.9064 19.3697 20.2083 19.7592 20.1023L22.3575 19.3951L19.9956 17.4702Z" fill="#2405F2"/>
<path d="M27.7321 10.7864L21.1719 16.1328L24.0011 18.4386C25.4838 17.23 28.3689 14.8784 30.561 13.0919L27.7321 10.7864Z" fill="#2405F2"/>
<path d="M33.4149 8.45752C33.0648 8.17053 32.5492 8.00644 32.0025 8.00644C31.4557 8.00644 30.9402 8.17053 30.5881 8.45833L29.1406 9.63797L31.9694 11.9433C32.7618 11.2975 33.3095 10.8511 33.417 10.7636C34.1951 10.1285 34.195 9.09407 33.4149 8.45752Z" fill="#2405F2"/>
</svg>
