<svg width="32" height="23" viewBox="0 0 32 23" fill="none" xmlns="http://www.w3.org/2000/svg">
<path d="M16 8.86273C19.003 8.86273 21.4374 6.87874 21.4374 4.43137C21.4374 1.98399 19.003 0 16 0C12.9969 0 10.5625 1.98399 10.5625 4.43137C10.5625 6.87874 12.9969 8.86273 16 8.86273Z" fill="#2405F2"/>
<path d="M27 8.86276C28.8984 8.86276 30.4374 7.60851 30.4374 6.06132C30.4374 4.51413 28.8984 3.25988 27 3.25988C25.1015 3.25988 23.5625 4.51413 23.5625 6.06132C23.5625 7.60851 25.1015 8.86276 27 8.86276Z" fill="#2405F2"/>
<path d="M4.99997 8.86273C6.89843 8.86273 8.43744 7.60848 8.43744 6.06129C8.43744 4.5141 6.89843 3.25985 4.99997 3.25985C3.10151 3.25985 1.5625 4.5141 1.5625 6.06129C1.5625 7.60848 3.10151 8.86273 4.99997 8.86273Z" fill="#2405F2"/>
<path d="M8.3868 11.3781C7.03369 10.4746 5.80826 10.5942 4.24371 10.5942C1.90373 10.5942 0 12.1365 0 14.0318V19.5945C0 20.4176 0.824368 21.0869 1.83811 21.0869C6.21469 21.0869 5.68745 21.1514 5.68745 20.9331C5.68745 16.9914 5.11458 14.1008 8.3868 11.3781Z" fill="#2405F2"/>
<path d="M17.4882 10.6149C14.7555 10.4292 12.3802 10.6171 10.3314 11.9953C6.90288 14.2334 7.56268 17.2468 7.56268 20.9334C7.56268 21.9087 8.53642 22.7171 9.75141 22.7171C22.9439 22.7171 23.469 23.064 24.2513 21.6521C24.5078 21.1746 24.4375 21.3264 24.4375 16.7587C24.4375 13.1308 20.583 10.6149 17.4882 10.6149Z" fill="#2405F2"/>
<path d="M27.7564 10.595C26.1833 10.595 24.9646 10.4766 23.6133 11.3789C26.8611 14.0813 26.3126 16.7747 26.3126 20.9338C26.3126 21.1535 25.8749 21.0876 30.0963 21.0876C31.1463 21.0876 32.0001 20.3944 32.0001 19.5422V14.0326C32.0001 12.1373 30.0963 10.595 27.7564 10.595Z" fill="#2405F2"/>
</svg>
