<svg width="16" height="17" viewBox="0 0 16 17" fill="none" xmlns="http://www.w3.org/2000/svg">
<path d="M14.8156 0.963196H1.18125C0.528125 0.963196 0 1.45351 0 2.05973V15.0784C0 15.6846 0.528125 16.1779 1.18125 16.1779H14.8156C15.4688 16.1779 16 15.6846 16 15.0814V2.05973C16 1.45351 15.4688 0.963196 14.8156 0.963196ZM4.74687 13.9284H2.37188V6.66574H4.74687V13.9284ZM3.55938 5.67619C2.79688 5.67619 2.18125 5.09078 2.18125 4.36868C2.18125 3.64657 2.79688 3.06116 3.55938 3.06116C4.31875 3.06116 4.93437 3.64657 4.93437 4.36868C4.93437 5.08781 4.31875 5.67619 3.55938 5.67619ZM13.6344 13.9284H11.2625V10.3981C11.2625 9.55714 11.2469 8.47249 10.0281 8.47249C8.79375 8.47249 8.60625 9.39072 8.60625 10.3387V13.9284H6.2375V6.66574H8.5125V7.65827H8.54375C8.85937 7.08772 9.63438 6.48448 10.7875 6.48448C13.1906 6.48448 13.6344 7.98812 13.6344 9.94345V13.9284V13.9284Z" fill="white"/>
</svg>
