<svg width="17" height="17" viewBox="0 0 17 17" fill="none" xmlns="http://www.w3.org/2000/svg">
<g clip-path="url(#clip0_199_413)">
<path d="M8.3335 2.33312C10.471 2.33312 10.7241 2.34203 11.5647 2.37769C12.346 2.41038 12.7679 2.53519 13.0491 2.63919C13.421 2.77589 13.6897 2.9423 13.9679 3.20677C14.2491 3.47422 14.421 3.72681 14.5647 4.08043C14.6741 4.34788 14.8054 4.75202 14.8397 5.49195C14.8772 6.29429 14.8866 6.53499 14.8866 8.56461C14.8866 10.5972 14.8772 10.8379 14.8397 11.6373C14.8054 12.3802 14.6741 12.7814 14.5647 13.0488C14.421 13.4024 14.246 13.658 13.9679 13.9225C13.6866 14.1899 13.421 14.3533 13.0491 14.49C12.7679 14.594 12.3429 14.7189 11.5647 14.7515C10.721 14.7872 10.4679 14.7961 8.3335 14.7961C6.196 14.7961 5.94287 14.7872 5.10225 14.7515C4.321 14.7189 3.89912 14.594 3.61787 14.49C3.246 14.3533 2.97725 14.1869 2.69912 13.9225C2.41787 13.655 2.246 13.4024 2.10225 13.0488C1.99287 12.7814 1.86162 12.3772 1.82725 11.6373C1.78975 10.8349 1.78037 10.5942 1.78037 8.56461C1.78037 6.53202 1.78975 6.29132 1.82725 5.49195C1.86162 4.74905 1.99287 4.34788 2.10225 4.08043C2.246 3.72681 2.421 3.47125 2.69912 3.20677C2.98037 2.93933 3.246 2.77589 3.61787 2.63919C3.89912 2.53519 4.32412 2.41038 5.10225 2.37769C5.94287 2.34203 6.196 2.33312 8.3335 2.33312ZM8.3335 0.963196C6.16162 0.963196 5.88975 0.972111 5.03662 1.00777C4.18662 1.04343 3.60225 1.17418 3.096 1.36139C2.56787 1.55752 2.121 1.81605 1.67725 2.24099C1.23037 2.66297 0.958496 3.08791 0.752246 3.58714C0.555371 4.07152 0.417871 4.62424 0.380371 5.43252C0.342871 6.24675 0.333496 6.50528 0.333496 8.57056C0.333496 10.6358 0.342871 10.8944 0.380371 11.7056C0.417871 12.5139 0.555371 13.0696 0.752246 13.551C0.958496 14.0532 1.23037 14.4781 1.67725 14.9001C2.121 15.3221 2.56787 15.5836 3.09287 15.7767C3.60225 15.964 4.1835 16.0947 5.0335 16.1304C5.88662 16.166 6.1585 16.1749 8.33037 16.1749C10.5022 16.1749 10.7741 16.166 11.6272 16.1304C12.4772 16.0947 13.0616 15.964 13.5679 15.7767C14.0929 15.5836 14.5397 15.3221 14.9835 14.9001C15.4272 14.4781 15.7022 14.0532 15.9054 13.554C16.1022 13.0696 16.2397 12.5169 16.2772 11.7086C16.3147 10.8973 16.3241 10.6388 16.3241 8.57353C16.3241 6.50825 16.3147 6.24972 16.2772 5.43846C16.2397 4.63018 16.1022 4.07449 15.9054 3.59308C15.7085 3.08791 15.4366 2.66297 14.9897 2.24099C14.546 1.81902 14.0991 1.55752 13.5741 1.36437C13.0647 1.17715 12.4835 1.0464 11.6335 1.01074C10.7772 0.972111 10.5054 0.963196 8.3335 0.963196Z" fill="white"/>
<path d="M8.3335 4.66284C6.06475 4.66284 4.22412 6.41313 4.22412 8.57053C4.22412 10.7279 6.06475 12.4782 8.3335 12.4782C10.6022 12.4782 12.4429 10.7279 12.4429 8.57053C12.4429 6.41313 10.6022 4.66284 8.3335 4.66284ZM8.3335 11.1053C6.86162 11.1053 5.66787 9.97016 5.66787 8.57053C5.66787 7.17089 6.86162 6.03573 8.3335 6.03573C9.80537 6.03573 10.9991 7.17089 10.9991 8.57053C10.9991 9.97016 9.80537 11.1053 8.3335 11.1053Z" fill="white"/>
<path d="M13.5647 4.50818C13.5647 5.01335 13.1335 5.42047 12.6054 5.42047C12.0741 5.42047 11.646 5.01038 11.646 4.50818C11.646 4.003 12.0772 3.59589 12.6054 3.59589C13.1335 3.59589 13.5647 4.00597 13.5647 4.50818Z" fill="white"/>
</g>
<defs>
<clipPath id="clip0_199_413">
<rect width="16" height="15.2147" fill="white" transform="translate(0.333496 0.963196)"/>
</clipPath>
</defs>
</svg>
