<svg width="17" height="17" viewBox="0 0 17 17" fill="none" xmlns="http://www.w3.org/2000/svg">
<g clip-path="url(#clip0_199_411)">
<path d="M5.69994 14.752C11.7362 14.752 15.0387 9.99532 15.0387 5.8716C15.0387 5.73788 15.0356 5.60118 15.0293 5.46746C15.6718 5.02566 16.2262 4.47843 16.6665 3.85149C16.0682 4.10462 15.4329 4.26995 14.7824 4.34181C15.4674 3.9514 15.9802 3.3381 16.2259 2.61559C15.5815 2.97871 14.8769 3.23486 14.1421 3.37306C13.6471 2.87284 12.9925 2.54164 12.2796 2.43066C11.5668 2.31967 10.8353 2.43509 10.1983 2.75907C9.56136 3.08305 9.05437 3.59753 8.75574 4.22299C8.4571 4.84844 8.38346 5.55003 8.54619 6.21928C7.2415 6.15702 5.96513 5.83473 4.79983 5.2733C3.63452 4.71188 2.6063 3.92385 1.78182 2.9603C1.36277 3.64732 1.23454 4.4603 1.42319 5.23399C1.61184 6.00769 2.10321 6.68406 2.79744 7.12562C2.27626 7.10989 1.76649 6.97645 1.31025 6.73634V6.77497C1.30979 7.49595 1.5719 8.19484 2.05204 8.75283C2.53219 9.31082 3.20072 9.69347 3.944 9.83575C3.46121 9.96136 2.95449 9.97966 2.46307 9.88924C2.67281 10.5093 3.08089 11.0516 3.63035 11.4405C4.17982 11.8294 4.84325 12.0454 5.52807 12.0585C4.36545 12.9269 2.92929 13.398 1.45088 13.3958C1.1887 13.3954 0.92677 13.3801 0.666504 13.35C2.16841 14.2663 3.91552 14.7529 5.69994 14.752Z" fill="white"/>
</g>
<defs>
<clipPath id="clip0_199_411">
<rect width="16" height="15.2147" fill="white" transform="translate(0.666504 0.963196)"/>
</clipPath>
</defs>
</svg>
