<svg width="37" height="37" viewBox="0 0 37 37" fill="none" xmlns="http://www.w3.org/2000/svg">
<g clip-path="url(#clip0_77_1028)">
<path d="M18.12 13.6604L18.1737 19.6602M18.2273 25.6599L18.2423 25.6598M15.4862 5.97367L2.97136 27.2964C2.71348 27.7524 2.57948 28.2679 2.5827 28.7917C2.58592 29.3156 2.72624 29.8294 2.9897 30.2822C3.25317 30.7349 3.63059 31.1108 4.08442 31.3724C4.53825 31.634 5.05267 31.7722 5.5765 31.7733L30.9855 31.5461C31.5092 31.5356 32.0211 31.3882 32.4702 31.1186C32.9192 30.8489 33.2899 30.4663 33.5452 30.0089C33.8005 29.5515 33.9316 29.0352 33.9255 28.5114C33.9193 27.9877 33.7761 27.4746 33.5101 27.0233L20.616 5.92779C20.3446 5.48936 19.9649 5.12826 19.5133 4.87933C19.0618 4.63041 18.5537 4.50206 18.0382 4.50667C17.5226 4.51128 17.0169 4.6487 16.5699 4.90566C16.1229 5.16262 15.7496 5.53045 15.4862 5.97367Z" stroke="#FF0707" stroke-width="4" stroke-linecap="round" stroke-linejoin="round"/>
</g>
<defs>
<clipPath id="clip0_77_1028">
<rect width="36" height="36" fill="white" transform="translate(0 0.32193) rotate(-0.512389)"/>
</clipPath>
</defs>
</svg>
